<svg id="Capa_1" enable-background="new 0 0 512 512" height="512" viewBox="0 0 512 512" width="512" xmlns="http://www.w3.org/2000/svg"><g><path d="m419.582 203.811c0 18.76 17.132 40.002 11.631 56.928-5.697 17.544-32.224 24.621-42.856 39.219-10.734 14.752-9.333 42.134-24.086 52.869-14.598 10.621-40.167.907-57.7 6.603-16.926 5.491-31.812 28.567-50.572 28.567s-33.646-23.076-50.572-28.567c-17.534-5.697-43.103 4.018-57.7-6.603-14.752-10.734-13.351-38.117-24.086-52.869-10.631-14.598-37.169-21.675-42.856-39.219-5.501-16.926 11.631-38.168 11.631-56.928s-17.132-40.012-11.631-56.938c5.697-17.534 32.224-24.611 42.856-39.219 10.734-14.742 9.333-42.134 24.086-52.859 11.291-8.221 29.133-4.275 44.751-4.698 4.584-.124 8.973-.618 12.949-1.906 1.174-.381 2.339-.845 3.492-1.38 15.516-7.211 29.619-27.186 47.081-27.186s31.575 19.986 47.09 27.186c1.154.536 2.318.999 3.482 1.38 3.976 1.288 8.375 1.782 12.96 1.906 15.618.422 33.46-3.523 44.741 4.698 14.752 10.724 13.351 38.117 24.086 52.859 10.632 14.608 37.169 21.685 42.856 39.229 5.499 16.926-11.633 38.168-11.633 56.928z" fill="#aad880"/><path d="m320.857 329.632-15.336-1.899 1.043-8.425c1.157-9.358 2.355-19.036 4.76-26.428 2.495-7.633 6.403-13.319 10.184-18.818 4.574-6.655 8.526-12.403 9.813-21.219 1.29-8.861-.515-19.542-2.425-30.851-1.557-9.216-3.168-18.746-3.168-27.999 0-9.248 1.61-18.778 3.167-27.993 1.911-11.309 3.716-21.991 2.425-30.85-1.287-8.813-5.238-14.561-9.813-21.216-3.78-5.499-7.689-11.185-10.18-18.807-2.412-7.385-3.601-17.051-4.751-26.399-.757-6.154-1.54-12.517-2.631-17.785l-1.567-7.566 15.131-3.134 1.567 7.566c1.219 5.887 2.041 12.57 2.836 19.033 1.06 8.616 2.155 17.526 4.102 23.485 1.799 5.504 4.921 10.045 8.226 14.854 4.951 7.202 10.562 15.366 12.37 27.739 1.641 11.266-.454 23.664-2.479 35.654-1.451 8.587-2.951 17.467-2.951 25.419 0 7.957 1.501 16.837 2.951 25.425 2.026 11.989 4.12 24.386 2.48 35.655-1.808 12.377-7.419 20.54-12.37 27.742-3.305 4.808-6.428 9.35-8.227 14.856-1.943 5.971-3.047 14.899-4.115 23.534z" fill="#8bc852"/><path d="m255.983 387.997c-18.749-.021-33.635-23.076-50.551-28.567-17.544-5.697-43.103 4.018-57.711-6.603-14.742-10.734-13.351-38.117-24.075-52.869-10.631-14.598-37.169-21.675-42.866-39.219-5.491-16.926 11.641-38.168 11.641-56.928s-17.132-40.012-11.641-56.938c5.697-17.534 32.234-24.611 42.866-39.219 10.724-14.742 9.333-42.134 24.075-52.859 13.289-9.673 35.644-2.503 52.776-5.419-2.812 13.526-3.461 31.997-7.17 43.35-5.027 15.381-17.596 22.829-20.295 41.31-2.596 17.822 5.511 40.208 5.511 59.957 0 19.759-8.108 42.134-5.511 59.967 2.699 18.471 15.267 25.93 20.295 41.31 5.079 15.535 4.419 44.38 11.404 55.681 6.912 11.188 19.017.958 27.32 6.954 8.016 5.79 15.052 30.071 23.932 30.092z" fill="#9bd069"/><path d="m180.683 135.149c-1.298 8.86.515 19.543 2.421 30.854 1.556 9.21 3.173 18.739 3.173 27.99s-1.617 18.78-3.173 28c-1.906 11.311-3.719 21.984-2.421 30.854 1.288 8.808 5.233 14.556 9.807 21.211 3.781 5.501 7.695 11.188 10.178 18.811 2.411 7.356 3.595 16.967 4.749 26.259l1.061 8.602-15.339 1.896-1.061-8.602c-1.061-8.561-2.153-17.42-4.09-23.354-1.803-5.512-4.924-10.055-8.231-14.866-4.955-7.201-10.559-15.36-12.372-27.732-1.638-11.27.453-23.663 2.483-35.655 1.453-8.592 2.957-17.472 2.957-25.425s-1.504-16.833-2.957-25.415c-2.029-11.991-4.121-24.395-2.483-35.655 1.813-12.372 7.428-20.542 12.372-27.743 3.307-4.811 6.428-9.354 8.231-14.855 1.937-5.944 3.039-14.845 4.1-23.447.69-5.656 1.411-11.466 2.39-16.782 4.584-.124 8.973-.618 12.949-1.906 1.174-.381 2.339-.845 3.492-1.38l-.855 4.141c-1.102 5.275-1.885 11.651-2.648 17.822-1.144 9.333-2.339 18.976-4.749 26.352-2.483 7.623-6.397 13.31-10.178 18.811-4.572 6.658-8.518 12.406-9.806 21.214z" fill="#8bc852"/><path d="m394.678 426.763c-1.453 17.709-5.285 41.661-14.948 64.654-5.244 12.486-17.503 20.583-31.05 20.583h-185.36c-13.547 0-25.806-8.097-31.05-20.583-9.663-22.994-13.495-46.945-14.948-64.654-1.339-16.37-.649-27.403-.649-27.403h278.654s.69 11.033-.649 27.403z" fill="#eab14d"/><path d="m215.705 512h-52.375c-13.547 0-25.806-8.097-31.06-20.583-18.595-44.246-15.597-92.057-15.597-92.057h78.757s-1.308 47.811 6.779 92.057c2.277 12.486 7.613 20.583 13.496 20.583z" fill="#e49542"/><path d="m394.678 426.763c-92.448 2.132-184.907 2.132-277.356 0-1.339-16.37-.649-27.403-.649-27.403l139.327-38.265 139.327 38.265s.69 11.033-.649 27.403z" fill="#e49542"/><path d="m395.987 322.359c-93.325-2.173-186.65-2.173-279.974 0-12.654.295-23.566 9.235-26.101 21.636-2.33 11.4-2.33 22.8 0 34.2 2.535 12.401 13.447 21.341 26.101 21.636l28.78-4.546s34.739 4.391 48.04 5.844c67.718.711 135.436.279 203.155-1.298 12.654-.295 23.566-9.235 26.101-21.636 2.33-11.4 2.33-22.8 0-34.2-2.536-12.401-13.448-21.341-26.102-21.636z" fill="#eab14d"/><path d="m194.884 401.152c-26.29-.268-52.58-.701-78.871-1.319-12.651-.299-23.56-9.241-26.095-21.634-2.339-11.404-2.339-22.808 0-34.202 2.534-12.403 13.444-21.345 26.095-21.644 26.259-.608 52.529-1.04 78.799-1.308-11.641 1.731-21.253 10.497-23.653 22.242-2.431 11.868-2.431 23.746 0 35.624 2.4 11.775 12.053 20.552 23.725 22.241z" fill="#e49542"/><path d="m419.252 81.944c-1.955-1.129-4.638-2.346-7.799-3.549 3.161-1.203 5.844-2.42 7.799-3.549 12.482-7.206 16.758-23.167 9.552-35.648-7.206-12.482-23.167-16.758-35.648-9.552-1.956 1.129-4.351 2.844-6.974 4.98.539-3.339.826-6.271.826-8.529.001-14.413-11.683-26.097-26.096-26.097s-26.097 11.684-26.097 26.096c0 2.258.287 5.19.826 8.529-2.622-2.136-5.018-3.851-6.973-4.98-12.482-7.206-28.442-2.93-35.648 9.552s-2.93 28.442 9.552 35.648c1.956 1.129 4.638 2.346 7.8 3.549-3.161 1.203-5.844 2.42-7.8 3.549-12.482 7.206-16.758 23.167-9.552 35.648 7.207 12.482 23.167 16.758 35.648 9.552 1.956-1.129 4.351-2.843 6.973-4.98-.539 3.339-.826 6.271-.826 8.529 0 14.413 11.684 26.097 26.097 26.097s26.096-11.684 26.096-26.097c0-2.258-.287-5.19-.826-8.529 2.622 2.136 5.018 3.851 6.974 4.98 12.482 7.207 28.442 2.93 35.648-9.552 7.206-12.48 2.93-28.441-9.552-35.647z" fill="#da387d"/><circle cx="360.912" cy="78.395" fill="#efecef" r="32.563"/><path d="m369.66 109.766c-2.781.783-5.717 1.195-8.757 1.195-17.977 0-32.554-14.577-32.554-32.564s14.577-32.564 32.554-32.564c3.039 0 5.975.412 8.757 1.195-13.732 3.822-23.807 16.421-23.807 31.369s10.074 27.547 23.807 31.369z" fill="#e2dfe2"/></g></svg>