<?xml version="1.0" encoding="iso-8859-1"?>
<!-- Generator: Adobe Illustrator 19.0.0, SVG Export Plug-In . SVG Version: 6.00 Build 0)  -->
<svg version="1.1" id="Capa_1" xmlns="http://www.w3.org/2000/svg" xmlns:xlink="http://www.w3.org/1999/xlink" x="0px" y="0px"
	 viewBox="0 0 512 512" style="enable-background:new 0 0 512 512;" xml:space="preserve">
<path style="fill:#4C8C51;" d="M376.952,71.964c-14.667,0.424-26.159,12.834-26.159,27.508v90.707h-65.379v54.914h89.341
	c16.542,0,29.953-13.41,29.953-29.953V98.879C404.708,83.742,392.188,71.524,376.952,71.964z"/>
<g>
	<path style="fill:#6AC473;" d="M135.048,71.964c14.667,0.424,26.159,12.834,26.159,27.508v90.707h65.379v54.914h-89.341
		c-16.542,0-29.953-13.41-29.953-29.953V98.879C107.292,83.742,119.812,71.524,135.048,71.964z"/>
	<path style="fill:#6AC473;" d="M305.14,19.91C291.753,7.07,274.326,0,255.919,0c-18.404,0-35.709,7.07-49.096,19.909
		c-13.63,13.072-20.933,30.379-20.933,48.733v249.922c0,8.259,6.401,15.154,14.698,15.154h110.826
		c8.297,0,14.698-6.895,14.698-15.154V68.641C326.111,50.287,318.768,32.98,305.14,19.91z"/>
</g>
<path style="fill:#A9E570;" d="M255.919,0c-18.404,0-35.709,7.07-49.096,19.909c-13.63,13.072-20.933,30.379-20.933,48.733v249.922
	c0,8.259,6.401,15.154,14.698,15.154H256V0H255.919z"/>
<path style="fill:#CFA05F;" d="M363.839,328.957c-2.852-3.221-6.957-5.255-11.271-5.255H159.431c-4.313,0-8.419,2.034-11.271,5.255
	c-2.852,3.221-4.176,7.601-3.634,11.861l16.794,132.001C164.164,495.183,183.388,512,206.035,512h99.93
	c22.647,0,41.87-16.77,44.715-39.134l16.794-132.096C368.015,336.511,366.692,332.178,363.839,328.957z"/>
<path style="fill:#FACC8C;" d="M256,323.702h-96.569c-4.313,0-8.419,2.034-11.271,5.255c-2.852,3.221-4.176,7.601-3.634,11.861
	l16.794,132.001C164.164,495.183,183.388,512,206.035,512H256V323.702z"/>
<path style="fill:#A67955;" d="M349.155,284.64h-186.31c-23.213,0-42.099,18.46-42.099,41.566s18.886,41.565,42.099,41.565h186.309
	c23.213,0,42.099-18.46,42.099-41.566S372.368,284.64,349.155,284.64z"/>
<path style="fill:#DEA06D;" d="M256,284.64h-93.155c-23.213,0-42.099,18.46-42.099,41.566c0,23.106,18.886,41.565,42.099,41.565H256
	V284.64z"/>
<path style="fill:#4C8C51;" d="M252.253,110.151c1.132,1.126,2.399,2.035,3.749,2.727c2.151,1.102,4.512,1.653,6.874,1.653
	c3.845,0,7.69-1.46,10.623-4.38c5.868-5.84,5.868-15.309,0-21.148l-13.752-13.689c-1.132-1.126-2.399-2.035-3.749-2.727
	c-5.652-2.895-12.762-1.986-17.497,2.727c-5.868,5.84-5.868,15.309,0,21.148L252.253,110.151z"/>
<path style="fill:#57A15E;" d="M252.253,110.151c1.132,1.126,2.399,2.035,3.749,2.727l-0.004-40.291
	c-5.652-2.895-12.762-1.986-17.497,2.727c-5.868,5.84-5.868,15.309,0,21.148L252.253,110.151z"/>
<path style="fill:#4C8C51;" d="M252.253,175.941c1.132,1.126,2.399,2.035,3.749,2.727c2.151,1.102,4.512,1.653,6.874,1.653
	c3.845,0,7.69-1.46,10.623-4.38c5.868-5.84,5.868-15.309,0-21.148l-13.752-13.689c-1.132-1.126-2.399-2.035-3.749-2.727
	c-5.652-2.895-12.762-1.986-17.497,2.727c-5.868,5.84-5.868,15.309,0,21.148L252.253,175.941z"/>
<path style="fill:#57A15E;" d="M252.253,175.941c1.132,1.126,2.399,2.035,3.749,2.727l-0.004-40.291
	c-5.652-2.895-12.762-1.986-17.497,2.727c-5.868,5.84-5.868,15.309,0,21.148L252.253,175.941z"/>
<path style="fill:#4C8C51;" d="M252.253,242.112c1.132,1.126,2.399,2.035,3.749,2.727c2.151,1.102,4.512,1.653,6.874,1.653
	c3.845,0,7.69-1.46,10.623-4.38c5.868-5.84,5.868-15.309,0-21.148l-13.752-13.689c-1.132-1.126-2.399-2.035-3.749-2.727
	c-5.652-2.895-12.762-1.986-17.497,2.727c-5.868,5.84-5.868,15.309,0,21.148L252.253,242.112z"/>
<path style="fill:#57A15E;" d="M252.253,242.112c1.132,1.126,2.399,2.035,3.749,2.727l-0.004-40.291
	c-5.652-2.895-12.762-1.986-17.497,2.727c-5.868,5.84-5.868,15.309,0,21.148L252.253,242.112z"/>
<g>
</g>
<g>
</g>
<g>
</g>
<g>
</g>
<g>
</g>
<g>
</g>
<g>
</g>
<g>
</g>
<g>
</g>
<g>
</g>
<g>
</g>
<g>
</g>
<g>
</g>
<g>
</g>
<g>
</g>
</svg>
