<svg height="512" viewBox="0 0 128 128" width="512" xmlns="http://www.w3.org/2000/svg"><g><path d="m100.991 43.1c-16.015.007-24.116 6.141-22.65 20.664 8.391 3.754 16.848-3.1 18.246-8.97a59.982 59.982 0 0 1 4.404-11.694z" fill="#9adb07"/><path d="m66 85.75a1.751 1.751 0 0 1 -1.7-2.16c2.779-11.53 8.29-16.782 15.917-24.053 2-1.906 4.265-4.065 6.658-6.511a1.75 1.75 0 0 1 2.5 2.448c-2.436 2.489-4.725 4.672-6.745 6.6-7.461 7.11-12.391 11.808-14.93 22.336a1.75 1.75 0 0 1 -1.7 1.34z" fill="#8ec100"/><path d="m28.651 52.411c13.736-1.721 21.349 2.667 21.654 15.281-6.792 4.124-14.784-.845-16.617-5.726a51.871 51.871 0 0 0 -5.037-9.555z" fill="#9adb07"/><path d="m64.943 87.947a1.748 1.748 0 0 1 -1.636-1.131c-3.831-10.128-9.307-14.176-17.6-20.302-1.535-1.135-3.159-2.335-4.881-3.653a1.75 1.75 0 1 1 2.127-2.779c1.7 1.3 3.314 2.493 4.834 3.616 8.475 6.263 14.6 10.787 18.793 21.88a1.75 1.75 0 0 1 -1.637 2.369z" fill="#8ec100"/><path d="m24.192 6.5c20.349 6.417 28.19 17.454 20.516 35.324-12.166 1.413-20.169-10.685-19.6-18.7a79.966 79.966 0 0 0 -.916-16.624z" fill="#9adb07"/><path d="m63.415 83.25a1.749 1.749 0 0 1 -1.728-1.489c-1.135-7.53-7.532-19.147-14.938-32.6-4.179-7.589-8.5-15.436-12.423-23.525a1.75 1.75 0 0 1 3.149-1.528c3.884 8.008 8.182 15.815 12.339 23.365 7.569 13.745 14.1 25.615 15.333 33.763a1.749 1.749 0 0 1 -1.469 1.991 1.673 1.673 0 0 1 -.263.023z" fill="#8ec100"/><path d="m58.637 6.5c-9.2 15.21-8.027 26.426 6.605 33.38 8.386-5.81 6.735-17.78 1.969-22.48a66.6 66.6 0 0 1 -8.574-10.9z" fill="#9adb07"/><path d="m64.669 83.25c-.039 0-.078 0-.118 0a1.749 1.749 0 0 1 -1.63-1.862c.022-.344 2.255-34.633-.356-54.264a1.75 1.75 0 1 1 3.469-.461c2.657 19.978.474 53.538.379 54.957a1.75 1.75 0 0 1 -1.744 1.63z" fill="#8ec100"/><path d="m104.375 6.5c-21.125 3-30.667 12.605-26.021 31.49 11.771 3.385 21.646-7.24 22.4-15.24a79.951 79.951 0 0 1 3.621-16.25z" fill="#9adb07"/><path d="m66 88.75a1.6 1.6 0 0 1 -.182-.01 1.747 1.747 0 0 1 -1.56-1.92c.082-.8 2.05-19.611 4.9-28.837l.575-1.88c2.808-9.216 7.507-24.64 19.044-35.858a1.75 1.75 0 0 1 2.44 2.51c-10.892 10.589-15.251 24.9-18.135 34.368l-.58 1.894c-2.75 8.9-4.744 27.971-4.765 28.163a1.749 1.749 0 0 1 -1.737 1.57z" fill="#8ec100"/><path d="m84.04 121.5h-40.08l-3.476-38.5h47.032z" fill="#f4a86c"/><g fill="#d38854"><path d="m79.312 108.915c-.052 0-.105 0-.159-.007a1.75 1.75 0 0 1 -1.586-1.9l.767-8.492a1.75 1.75 0 0 1 3.486.314l-.766 8.492a1.751 1.751 0 0 1 -1.742 1.593z"/><path d="m37.212 78.706h53.576v9h-53.576z"/></g></g></svg>