<?xml version="1.0" encoding="iso-8859-1"?>
<!-- Generator: Adobe Illustrator 19.0.0, SVG Export Plug-In . SVG Version: 6.00 Build 0)  -->
<svg version="1.1" id="Capa_1" xmlns="http://www.w3.org/2000/svg" xmlns:xlink="http://www.w3.org/1999/xlink" x="0px" y="0px"
	 viewBox="0 0 512 512" style="enable-background:new 0 0 512 512;" xml:space="preserve">
<path style="fill:#00A554;" d="M408.717,68.883L376.86,90.669c-27.94,19.106-50.407,45.577-66.778,78.676
	c-12.855,25.992-21.971,56.092-27.095,89.461c-8.643,56.283-3.013,102.269-2.769,104.2l1.657,13.113h85.227l-1.085-16.007
	c-5.65-83.404,33.507-251.956,33.904-253.65L408.717,68.883z"/>
<path style="fill:#008B46;" d="M236.719,265.851c-12.7-70.901-47.868-125.058-101.702-156.617l-31.734-18.603l9.688,35.488
	c0.427,1.562,42.586,157.135,36.526,233.825l-1.278,16.175h89.618l1.888-12.807C239.989,361.505,246.14,318.445,236.719,265.851z"/>
<path style="fill:#00A554;" d="M274.568,235.127c-4.72-40.762-13.108-77.507-24.932-109.213
	c-15.098-40.485-35.911-72.947-61.862-96.481L155.321,0l7.616,43.144c0.373,2.113,37.234,212.515,31.884,317.216l-0.805,15.759
	h81.831l1.293-13.571C277.365,360.191,282.548,304.047,274.568,235.127z"/>
<path style="fill:#008B46;" d="M358.724,0l-32.453,29.431c-25.95,23.535-46.763,55.997-61.862,96.481
	c-11.824,31.706-20.212,68.45-24.932,109.213c-7.98,68.92-2.798,125.065-2.573,127.421l1.293,13.571h81.832l-0.806-15.759
	c-5.349-104.699,31.511-315.102,31.884-317.216L358.724,0z"/>
<path style="fill:#FFAF33;" d="M392.17,346.132v61.903C392.17,465.36,345.54,512,288.215,512h-63.672
	c-57.325,0-103.955-46.64-103.955-103.965v-61.903L392.17,346.132L392.17,346.132z"/>
<path style="fill:#FF9900;" d="M392.17,346.132v61.903C392.17,465.36,345.54,512,288.215,512h-31.836V346.132L392.17,346.132
	L392.17,346.132z"/>
<g>
</g>
<g>
</g>
<g>
</g>
<g>
</g>
<g>
</g>
<g>
</g>
<g>
</g>
<g>
</g>
<g>
</g>
<g>
</g>
<g>
</g>
<g>
</g>
<g>
</g>
<g>
</g>
<g>
</g>
</svg>
