<svg width="886" height="655" viewBox="0 0 886 655" fill="none" xmlns="http://www.w3.org/2000/svg">
<g id="undraw_environment_iaus 1">
<g clip-path="url(#clip0)">
<g id="plant 1">
<g clip-path="url(#clip1)">
<path id="forth" d="M601.316 152.227L619.92 164.949C636.236 176.107 649.357 191.566 658.917 210.895C666.424 226.074 671.748 243.652 674.74 263.139C679.787 296.007 676.5 322.862 676.357 323.99L675.389 331.648H625.618L626.252 322.3C629.551 273.593 606.684 175.161 606.452 174.172L601.316 152.227Z" fill="#00A554"/>
<path id="third" d="M701.76 267.253C709.176 225.848 729.714 194.221 761.152 175.791L779.684 164.927L774.027 185.652C773.777 186.564 749.157 277.416 752.696 322.202L753.442 331.648H701.107L700.004 324.169C699.85 323.113 696.258 297.967 701.76 267.253Z" fill="#008B46"/>
<path id="second" d="M679.657 249.31C682.413 225.506 687.311 204.048 694.216 185.532C703.033 161.889 715.188 142.932 730.343 129.188L749.295 112L744.847 137.195C744.63 138.429 723.103 261.301 726.228 322.445L726.698 331.648H678.91L678.155 323.722C678.023 322.346 674.996 289.559 679.657 249.31Z" fill="#00A554"/>
<path id="first" d="M630.511 112L649.463 129.187C664.617 142.931 676.772 161.889 685.589 185.531C692.494 204.046 697.393 225.504 700.149 249.309C704.809 289.558 701.783 322.345 701.652 323.721L700.897 331.646H653.108L653.579 322.443C656.702 261.301 635.177 138.429 634.959 137.194L630.511 112Z" fill="#008B46"/>
</g>
</g>
<path id="Vector" d="M377.697 443.685C377.697 443.685 495.36 429.565 536.542 407.209C577.724 384.854 883.647 374.264 883.647 443.685C883.647 513.106 531.835 543.698 531.835 543.698L347.105 533.109L377.697 443.685Z" fill="#FBBEBE"/>
<path id="Vector_2" opacity="0.1" d="M377.697 443.685C377.697 443.685 495.36 429.565 536.542 407.209C577.724 384.854 883.647 374.264 883.647 443.685C883.647 513.106 531.835 543.698 531.835 543.698L347.105 533.109L377.697 443.685Z" fill="black"/>
<path id="Vector_3" d="M411.819 430.742L387.11 502.516L0 507.223V401.326C0 401.326 148.255 367.204 265.918 440.155C265.918 440.155 404.76 423.682 411.819 430.742Z" fill="#62D28D"/>
<path id="Vector_4" opacity="0.1" d="M411.819 430.626L387.11 502.401L0 507.107V401.211C0 401.211 148.255 367.088 265.918 440.039C265.918 440.039 404.76 423.567 411.819 430.626Z" fill="black"/>
<path id="Vector_5" d="M854.404 400.738C854.404 404.748 845.411 407.725 844.527 411.594C843.65 415.431 848.993 421.265 847.302 424.93C845.555 428.677 843.49 432.267 841.131 435.662C838.916 438.834 832.074 438.371 829.269 441.345C826.522 444.046 823.612 446.576 820.556 448.921C817.579 451.397 813.546 451.916 810.161 454.195C806.943 456.362 807.332 464.311 803.772 466.284C800.37 468.17 795.162 466.653 791.471 468.348C787.929 469.975 786.061 475.859 782.274 477.298C778.622 478.685 774.102 478.088 770.24 479.29C766.503 480.453 762.322 480.264 758.406 481.244C754.604 482.195 751.7 487.895 747.744 488.663C743.89 489.412 739.374 487.415 735.388 487.982C731.497 488.536 726.971 483.61 722.967 483.983C719.049 484.348 715.357 486.628 711.344 486.812C707.409 486.993 703.519 488.726 699.505 488.726C695.491 488.726 691.35 492.491 687.416 492.311C683.403 492.126 679.77 486.419 675.852 486.055C671.848 485.682 667.072 491.643 663.18 491.089C659.195 490.522 656.039 484.687 652.185 483.938C648.228 483.17 643.118 487.34 639.315 486.389C635.398 485.409 633.074 478.621 629.336 477.457C625.475 476.256 620.689 477.884 617.037 476.496C613.25 475.057 608.636 475.288 605.093 473.661C601.403 471.966 598.753 467.955 595.351 466.069C591.791 464.096 590.149 459.202 586.931 457.035C583.545 454.755 578.388 455.046 575.411 452.57C572.268 449.956 566.379 449.82 563.727 447.008C560.921 444.033 559.786 439.039 557.572 435.867C555.239 432.527 559.817 425.465 558.188 421.934C556.499 418.27 549.433 416.782 548.556 412.945C547.652 408.939 547.188 404.845 547.172 400.738C547.172 396.728 553.215 393.663 554.099 389.795C554.976 385.958 550.528 380.447 552.219 376.783C553.848 373.252 553.64 367.824 555.973 364.483C558.188 361.312 563.716 360.068 566.521 357.094C569.173 354.282 573.921 353.498 577.064 350.884C580.04 348.409 579.661 340.943 583.046 338.664C586.265 336.497 590.759 335.508 594.319 333.535C597.721 331.649 602.536 331.967 606.226 330.272C609.768 328.645 615.317 331.851 619.104 330.412C622.756 329.024 625.718 325.991 629.579 324.789C633.316 323.626 635.072 314.754 638.988 313.775C642.79 312.824 647.469 314.403 651.425 313.634C655.279 312.885 660.465 319.885 664.45 319.318C668.341 318.764 671.252 309.42 675.255 309.047C679.174 308.682 683.592 313.522 687.605 313.338C691.54 313.157 695.491 315.993 699.505 315.993C703.518 315.993 707.517 312.101 711.451 312.281C715.464 312.466 719.002 317.609 722.92 317.973C726.924 318.346 731.839 310.524 735.731 311.077C739.716 311.645 742.795 317.692 746.649 318.44C750.606 319.209 755.561 315.455 759.365 316.406C763.281 317.385 765.637 323.813 769.375 324.976C773.236 326.178 775.615 330.712 779.267 332.1C783.054 333.539 790.09 326.806 793.633 328.433C797.323 330.128 800.511 333.061 803.913 334.947C807.473 336.92 813.133 335.928 816.352 338.095C819.737 340.374 820.569 346.493 823.546 348.969C826.689 351.583 831.874 352.37 834.526 355.182C837.331 358.156 837.721 363.486 839.936 366.658C842.268 369.998 842.196 374.626 843.824 378.157C845.514 381.821 850.026 384.592 850.902 388.428C851.786 392.296 854.404 396.729 854.404 400.738Z" fill="#3F3D56"/>
<path id="Vector_6" d="M430.645 474.277C430.645 474.277 563.604 406.033 649.498 431.919C735.392 457.804 855.408 413.093 869.527 428.389C883.647 443.685 903.649 608.413 734.215 617.826C564.781 627.239 420.056 589.587 420.056 589.587L430.645 474.277Z" fill="#FBBEBE"/>
<path id="Vector_7" d="M399.334 467.009C399.334 467.009 451.825 463.688 449.471 482.514C447.118 501.34 444.765 647.241 430.645 650.771C416.526 654.301 304.746 654.301 258.858 654.301H0V428.727C0 428.727 183.554 417.799 275.331 463.688C275.331 463.688 385.672 462.095 399.334 467.009Z" fill="#62D28D"/>
</g>
</g>
<defs>
<clipPath id="clip0">
<rect width="886" height="654.301" fill="white"/>
</clipPath>
<clipPath id="clip1">
<rect width="299" height="299" transform="matrix(-1 0 0 1 840 112)" fill="white"/>
</clipPath>
</defs>
</svg>
