<?xml version="1.0" encoding="iso-8859-1"?>
<!-- Generator: Adobe Illustrator 19.0.0, SVG Export Plug-In . SVG Version: 6.00 Build 0)  -->
<svg version="1.1" id="Capa_1" xmlns="http://www.w3.org/2000/svg" xmlns:xlink="http://www.w3.org/1999/xlink" x="0px" y="0px"
	 viewBox="0 0 512 512" style="enable-background:new 0 0 512 512;" xml:space="preserve">
<path style="fill:#10BB67;" d="M192.852,332.001c-8.291,0-15-6.709-15-15c0-93.325-32.109-186.878-90.41-259.754L61.133,24.376
	c-5.156-6.475-4.131-15.908,2.344-21.079c6.445-5.156,15.908-4.146,21.093,2.329l26.309,32.871
	c62.52,78.193,96.973,178.382,96.973,278.504C207.852,325.292,201.143,332.001,192.852,332.001z"/>
<g>
	<path style="fill:#32D736;" d="M113.721,257.462c-24.287-14.019-41.66-36.665-48.926-63.75c-2.139-7.998,2.607-16.23,10.605-18.369
		c27.041-7.251,55.313-3.545,79.688,10.488c24.287,14.019,41.66,36.665,48.926,63.75c2.139,7.998-2.607,16.23-10.605,18.369
		C166.373,275.212,138.058,271.526,113.721,257.462z"/>
	<path style="fill:#32D736;" d="M77.949,147.892c-26.367-9.595-47.432-28.887-59.268-54.302c-3.516-7.515-0.264-16.436,7.266-19.937
		c52.354-24.463,115.078-1.699,139.541,50.786c1.67,3.604,1.875,7.734,0.498,11.47c-1.348,3.735-4.16,6.782-7.764,8.467
		C132.797,156.218,104.308,157.48,77.949,147.892z"/>
</g>
<path style="fill:#0CA656;" d="M319.15,332.001c-8.291,0-15-6.709-15-15c0-132.197,50.221-220.014,123.281-311.36
	c5.186-6.46,14.59-7.5,21.094-2.358c6.475,5.171,7.5,14.619,2.344,21.079C415.958,68.029,334.15,161.221,334.15,317.001
	C334.15,325.292,327.441,332.001,319.15,332.001z"/>
<g>
	<path style="fill:#10BB67;" d="M318.623,267.95c-7.998-2.153-12.744-10.371-10.605-18.369c15-55.928,72.656-89.268,128.584-74.238
		c7.986,2.118,12.767,10.387,10.635,18.369c-7.266,27.085-24.639,49.731-48.926,63.75
		C373.929,271.526,345.695,275.222,318.623,267.95z"/>
	<path style="fill:#10BB67;" d="M322.52,268.463c-1.289,0-2.578-0.161-3.867-0.513c-55.957-14.985-89.268-72.671-74.297-128.599
		c2.254-8.2,10.557-12.698,18.398-10.605c55.928,15,89.238,72.686,74.268,128.599C335.205,264.039,329.141,268.463,322.52,268.463z"
		/>
	<path style="fill:#10BB67;" d="M353.809,144.376c-7.472-3.493-10.78-12.353-7.266-19.937c11.865-25.415,32.9-44.692,59.238-54.287
		c26.367-9.595,54.932-8.335,80.273,3.501c7.529,3.501,10.781,12.422,7.266,19.937c-11.865,25.415-32.9,44.707-59.238,54.287
		C407.939,157.419,379.338,156.293,353.809,144.376z"/>
	<path style="fill:#10BB67;" d="M353.809,144.376c-25.43-11.851-44.707-32.886-54.316-59.253c-9.58-26.338-8.35-51.06,3.516-76.49
		c3.516-7.529,12.48-10.679,19.922-7.251c25.43,11.851,44.707,29.102,54.316,55.454c9.58,26.353,8.35,54.873-3.516,80.288
		C370.259,144.548,361.401,147.901,353.809,144.376z"/>
</g>
<path style="fill:#994C0F;" d="M377.365,362.001h-240c-9.6,0-16.8,9-14.7,18.6l30,120c1.8,6.6,7.8,11.4,14.7,11.4h180
	c6.9,0,12.9-4.8,14.7-11.4l30-120C394.165,371.001,386.965,362.001,377.365,362.001z"/>
<path style="fill:#713708;" d="M392.065,380.601l-30,120c-1.8,6.6-7.8,11.4-14.7,11.4h-91.1v-150h121.1
	C386.965,362.001,394.165,371.001,392.065,380.601z"/>
<path style="fill:#BF6015;" d="M407.365,302.001h-300c-8.4,0-15,6.6-15,15v30c0,24.9,20.1,45,45,45h240c24.9,0,45.9-20.1,45.9-45
	v-30C423.265,308.601,415.765,302.001,407.365,302.001z"/>
<g>
	<path style="fill:#32D736;" d="M189.512,268.463c-6.621,0-12.686-4.409-14.502-11.118
		c-24.553-91.702,82.356-155.405,92.637-117.993c14.971,55.928-18.34,113.628-74.268,128.599
		C192.09,268.302,190.801,268.463,189.512,268.463z"/>
	<path style="fill:#32D736;" d="M151.895,145.782c-1.729,0-3.457-0.293-5.127-0.908c-3.75-1.362-6.797-4.146-8.467-7.749
		c-24.463-52.471-1.699-111.263,50.771-135.74c3.574-1.655,7.705-1.831,11.455-0.498c3.75,1.362,6.797,4.146,8.467,7.749
		c24.463,52.471,1.699,111.277-50.771,135.74C156.23,145.314,154.063,145.782,151.895,145.782z"/>
</g>
<path style="fill:#994C10;" d="M423.265,317.001v30c0,24.9-21,45-45.9,45h-121.1v-90h151.1
	C415.765,302.001,423.265,308.601,423.265,317.001z"/>
<g>
</g>
<g>
</g>
<g>
</g>
<g>
</g>
<g>
</g>
<g>
</g>
<g>
</g>
<g>
</g>
<g>
</g>
<g>
</g>
<g>
</g>
<g>
</g>
<g>
</g>
<g>
</g>
<g>
</g>
</svg>
